<svg width="133" height="94" viewBox="0 0 133 94" fill="none" xmlns="http://www.w3.org/2000/svg">
<path d="M5 5C5 17.6196 9.96557 30.3067 13 42.4444C15.8412 53.8091 18.6296 66.8406 23.5 77.5556C23.7815 78.1749 24.7707 85.691 25.2222 85.5556C27.8498 84.7673 33.5094 73.5399 35 71.0556C43.9027 56.2178 51.6002 40.4757 60 25.4444C63.054 19.9794 62.1055 21.2657 63.5556 26.4444C65.4571 33.2356 67.7949 40.3716 70.2222 47C74.9346 59.8685 78.4463 73.0041 84 85.5C86.3488 90.7848 87.5629 87.6121 90.2222 83.7778C96.5559 74.6455 101.382 64.0759 106 54C113.041 38.6377 119.306 22.4892 128 8" stroke="white" stroke-width="10" stroke-linecap="round"/>
</svg>
